<?xml version="1.0" encoding="utf-8"?>
<!-- Generator: Adobe Illustrator 21.0.0, SVG Export Plug-In . SVG Version: 6.00 Build 0)  -->
<svg version="1.1" id="Vrstva_1" xmlns="http://www.w3.org/2000/svg" xmlns:xlink="http://www.w3.org/1999/xlink" x="0px" y="0px"
	 viewBox="0 0 297.6 391.2" style="enable-background:new 0 0 297.6 391.2;" xml:space="preserve">
<style type="text/css">
	.st0{fill:#008eff;}
</style>
<path class="st0" d="M33.3,276.6l0-267.9h16.1v144c18.5-48.5,53.7-113.6,108.8-110.5l-0.9,16.1c-36.7-2.1-63.9,37.6-80.3,71.2
	c-18.6,38.1-27.7,77.4-27.8,77.8L33.3,276.6z"/>
<path class="st0" d="M143.3,382.5V207c-4.2,11.4-9.2,23.5-15.1,35.4c-11.3,22.9-23.8,41-37.2,53.7c-17.4,16.5-36.4,24.3-56.5,23.1
	l1-16.1c15.5,0.9,30.4-5.4,44.4-18.7c12-11.4,23.4-28,33.9-49.1c16.7-33.9,26.3-70.1,29.6-84.1l0.2-0.8l15.9-64.7v172.7
	c18.1-47.4,52.1-110.6,105-110.6c1.2,0,2.5,0,3.8,0.1l-0.9,16.1c-36.7-2.1-64,37.7-80.4,71.4c-18.5,38.1-27.6,77.2-27.7,77.6
	L143.3,382.5z"/>
</svg>
